<mxfile host="Electron" agent="Mozilla/5.0 (Windows NT 10.0; Win64; x64) AppleWebKit/537.36 (KHTML, like Gecko) draw.io/24.7.17 Chrome/128.0.6613.36 Electron/32.0.1 Safari/537.36" version="24.7.17">
  <diagram name="Page-1" id="gmJVIDccvWsY-ryzsYZR">
    <mxGraphModel dx="934" dy="1398" grid="1" gridSize="10" guides="1" tooltips="1" connect="1" arrows="1" fold="1" page="1" pageScale="1" pageWidth="850" pageHeight="1100" math="1" shadow="0">
      <root>
        <mxCell id="0" />
        <mxCell id="1" parent="0" />
        <mxCell id="I2Yv86F7FBQ0yj-bZWFU-17" style="rounded=0;orthogonalLoop=1;jettySize=auto;html=1;entryX=0;entryY=0.5;entryDx=0;entryDy=0;movable=1;resizable=1;rotatable=1;deletable=1;editable=1;locked=0;connectable=1;" parent="1" source="8tRsAm4OLRTYSmNUncQA-51" target="I2Yv86F7FBQ0yj-bZWFU-15" edge="1">
          <mxGeometry relative="1" as="geometry" />
        </mxCell>
        <mxCell id="I2Yv86F7FBQ0yj-bZWFU-18" value="$$b$$" style="edgeLabel;html=1;align=center;verticalAlign=middle;resizable=1;points=[];movable=1;rotatable=1;deletable=1;editable=1;locked=0;connectable=1;labelBackgroundColor=none;" parent="I2Yv86F7FBQ0yj-bZWFU-17" vertex="1" connectable="0">
          <mxGeometry x="0.3546" y="-1" relative="1" as="geometry">
            <mxPoint x="-18" y="-20" as="offset" />
          </mxGeometry>
        </mxCell>
        <mxCell id="8tRsAm4OLRTYSmNUncQA-51" value="" style="ellipse;whiteSpace=wrap;html=1;aspect=fixed;movable=1;resizable=1;rotatable=1;deletable=1;editable=1;locked=0;connectable=1;" parent="1" vertex="1">
          <mxGeometry x="310" y="575" width="50" height="50" as="geometry" />
        </mxCell>
        <mxCell id="8tRsAm4OLRTYSmNUncQA-2" value="" style="ellipse;whiteSpace=wrap;html=1;aspect=fixed;movable=1;resizable=1;rotatable=1;deletable=1;editable=1;locked=0;connectable=1;" parent="1" vertex="1">
          <mxGeometry x="145" y="255" width="50" height="50" as="geometry" />
        </mxCell>
        <mxCell id="8tRsAm4OLRTYSmNUncQA-1" value="&lt;font style=&quot;font-size: 20px;&quot;&gt;$$A$$&lt;/font&gt;" style="ellipse;whiteSpace=wrap;html=1;aspect=fixed;movable=1;resizable=1;rotatable=1;deletable=1;editable=1;locked=0;connectable=1;" parent="1" vertex="1">
          <mxGeometry x="150" y="260" width="40" height="40" as="geometry" />
        </mxCell>
        <mxCell id="I2Yv86F7FBQ0yj-bZWFU-2" value="" style="rounded=0;orthogonalLoop=1;jettySize=auto;html=1;entryX=0.5;entryY=0;entryDx=0;entryDy=0;movable=1;resizable=1;rotatable=1;deletable=1;editable=1;locked=0;connectable=1;" parent="1" source="8tRsAm4OLRTYSmNUncQA-3" target="8tRsAm4OLRTYSmNUncQA-26" edge="1">
          <mxGeometry relative="1" as="geometry">
            <mxPoint x="390" y="280" as="targetPoint" />
          </mxGeometry>
        </mxCell>
        <mxCell id="I2Yv86F7FBQ0yj-bZWFU-3" value="$$c$$" style="edgeLabel;html=1;align=center;verticalAlign=middle;resizable=1;points=[];movable=1;rotatable=1;deletable=1;editable=1;locked=0;connectable=1;labelBackgroundColor=none;" parent="I2Yv86F7FBQ0yj-bZWFU-2" vertex="1" connectable="0">
          <mxGeometry x="0.2828" relative="1" as="geometry">
            <mxPoint x="-3" y="-12" as="offset" />
          </mxGeometry>
        </mxCell>
        <mxCell id="8tRsAm4OLRTYSmNUncQA-3" value="&lt;font style=&quot;font-size: 20px;&quot;&gt;$$B$$&lt;/font&gt;" style="ellipse;whiteSpace=wrap;html=1;aspect=fixed;movable=1;resizable=1;rotatable=1;deletable=1;editable=1;locked=0;connectable=1;" parent="1" vertex="1">
          <mxGeometry x="270" y="260" width="40" height="40" as="geometry" />
        </mxCell>
        <mxCell id="8tRsAm4OLRTYSmNUncQA-29" style="rounded=0;orthogonalLoop=1;jettySize=auto;html=1;entryX=1;entryY=0.5;entryDx=0;entryDy=0;movable=1;resizable=1;rotatable=1;deletable=1;editable=1;locked=0;connectable=1;" parent="1" source="8tRsAm4OLRTYSmNUncQA-26" target="8tRsAm4OLRTYSmNUncQA-32" edge="1">
          <mxGeometry relative="1" as="geometry">
            <mxPoint x="395.85786437627803" y="385.85786437627803" as="targetPoint" />
          </mxGeometry>
        </mxCell>
        <mxCell id="8tRsAm4OLRTYSmNUncQA-36" value="$$d$$" style="edgeLabel;html=1;align=center;verticalAlign=middle;resizable=1;points=[];labelBackgroundColor=none;movable=1;rotatable=1;deletable=1;editable=1;locked=0;connectable=1;" parent="8tRsAm4OLRTYSmNUncQA-29" vertex="1" connectable="0">
          <mxGeometry x="0.021" relative="1" as="geometry">
            <mxPoint x="1" y="-12" as="offset" />
          </mxGeometry>
        </mxCell>
        <mxCell id="8tRsAm4OLRTYSmNUncQA-26" value="&lt;font style=&quot;font-size: 20px;&quot;&gt;$$C$$&lt;/font&gt;" style="ellipse;whiteSpace=wrap;html=1;aspect=fixed;movable=1;resizable=1;rotatable=1;deletable=1;editable=1;locked=0;connectable=1;" parent="1" vertex="1">
          <mxGeometry x="250" y="340" width="40" height="40" as="geometry" />
        </mxCell>
        <mxCell id="I2Yv86F7FBQ0yj-bZWFU-1" style="rounded=0;orthogonalLoop=1;jettySize=auto;html=1;entryX=0.5;entryY=1;entryDx=0;entryDy=0;movable=1;resizable=1;rotatable=1;deletable=1;editable=1;locked=0;connectable=1;" parent="1" source="8tRsAm4OLRTYSmNUncQA-32" target="8tRsAm4OLRTYSmNUncQA-2" edge="1">
          <mxGeometry relative="1" as="geometry">
            <mxPoint x="240" y="354" as="targetPoint" />
          </mxGeometry>
        </mxCell>
        <mxCell id="I2Yv86F7FBQ0yj-bZWFU-7" value="$$e$$" style="edgeLabel;html=1;align=center;verticalAlign=middle;resizable=1;points=[];movable=1;rotatable=1;deletable=1;editable=1;locked=0;connectable=1;labelBackgroundColor=none;" parent="I2Yv86F7FBQ0yj-bZWFU-1" vertex="1" connectable="0">
          <mxGeometry x="-0.2794" relative="1" as="geometry">
            <mxPoint x="-12" y="1" as="offset" />
          </mxGeometry>
        </mxCell>
        <mxCell id="8tRsAm4OLRTYSmNUncQA-32" value="&lt;font style=&quot;font-size: 20px;&quot;&gt;$$D$$&lt;/font&gt;" style="ellipse;whiteSpace=wrap;html=1;aspect=fixed;movable=1;resizable=1;rotatable=1;deletable=1;editable=1;locked=0;connectable=1;" parent="1" vertex="1">
          <mxGeometry x="170" y="340" width="40" height="40" as="geometry" />
        </mxCell>
        <mxCell id="8tRsAm4OLRTYSmNUncQA-54" style="rounded=0;orthogonalLoop=1;jettySize=auto;html=1;entryX=0;entryY=0.5;entryDx=0;entryDy=0;exitX=0.987;exitY=0.347;exitDx=0;exitDy=0;exitPerimeter=0;movable=1;resizable=1;rotatable=1;deletable=1;editable=1;locked=0;connectable=1;" parent="1" source="8tRsAm4OLRTYSmNUncQA-51" target="8tRsAm4OLRTYSmNUncQA-52" edge="1">
          <mxGeometry relative="1" as="geometry">
            <mxPoint x="355" y="580" as="sourcePoint" />
          </mxGeometry>
        </mxCell>
        <mxCell id="8tRsAm4OLRTYSmNUncQA-55" value="$$a$$" style="edgeLabel;html=1;align=center;verticalAlign=middle;resizable=1;points=[];labelBackgroundColor=none;movable=1;rotatable=1;deletable=1;editable=1;locked=0;connectable=1;" parent="8tRsAm4OLRTYSmNUncQA-54" vertex="1" connectable="0">
          <mxGeometry x="-0.1255" y="-1" relative="1" as="geometry">
            <mxPoint x="1" y="11" as="offset" />
          </mxGeometry>
        </mxCell>
        <mxCell id="8tRsAm4OLRTYSmNUncQA-48" value="&lt;span style=&quot;font-size: 20px;&quot;&gt;$$A$$&lt;/span&gt;" style="ellipse;whiteSpace=wrap;html=1;aspect=fixed;movable=1;resizable=1;rotatable=1;deletable=1;editable=1;locked=0;connectable=1;" parent="1" vertex="1">
          <mxGeometry x="315" y="580" width="40" height="40" as="geometry" />
        </mxCell>
        <mxCell id="I2Yv86F7FBQ0yj-bZWFU-23" value="" style="edgeStyle=orthogonalEdgeStyle;rounded=0;orthogonalLoop=1;jettySize=auto;html=1;movable=1;resizable=1;rotatable=1;deletable=1;editable=1;locked=0;connectable=1;" parent="1" source="8tRsAm4OLRTYSmNUncQA-52" target="I2Yv86F7FBQ0yj-bZWFU-15" edge="1">
          <mxGeometry relative="1" as="geometry" />
        </mxCell>
        <mxCell id="I2Yv86F7FBQ0yj-bZWFU-24" value="$$c$$" style="edgeLabel;html=1;align=center;verticalAlign=middle;resizable=1;points=[];movable=1;rotatable=1;deletable=1;editable=1;locked=0;connectable=1;" parent="I2Yv86F7FBQ0yj-bZWFU-23" vertex="1" connectable="0">
          <mxGeometry x="-0.3636" y="1" relative="1" as="geometry">
            <mxPoint x="5" y="2" as="offset" />
          </mxGeometry>
        </mxCell>
        <mxCell id="8tRsAm4OLRTYSmNUncQA-52" value="&lt;span style=&quot;font-size: 20px;&quot;&gt;$$B$$&lt;/span&gt;" style="ellipse;whiteSpace=wrap;html=1;aspect=fixed;movable=1;resizable=1;rotatable=1;deletable=1;editable=1;locked=0;connectable=1;" parent="1" vertex="1">
          <mxGeometry x="445" y="550" width="40" height="40" as="geometry" />
        </mxCell>
        <mxCell id="8tRsAm4OLRTYSmNUncQA-84" value="" style="edgeStyle=orthogonalEdgeStyle;rounded=0;orthogonalLoop=1;jettySize=auto;html=1;movable=1;resizable=1;rotatable=1;deletable=1;editable=1;locked=0;connectable=1;" parent="1" source="8tRsAm4OLRTYSmNUncQA-65" target="8tRsAm4OLRTYSmNUncQA-82" edge="1">
          <mxGeometry relative="1" as="geometry" />
        </mxCell>
        <mxCell id="8tRsAm4OLRTYSmNUncQA-85" value="$$d$$" style="edgeLabel;html=1;align=center;verticalAlign=middle;resizable=1;points=[];labelBackgroundColor=none;movable=1;rotatable=1;deletable=1;editable=1;locked=0;connectable=1;" parent="8tRsAm4OLRTYSmNUncQA-84" vertex="1" connectable="0">
          <mxGeometry x="-0.0844" relative="1" as="geometry">
            <mxPoint y="-8" as="offset" />
          </mxGeometry>
        </mxCell>
        <mxCell id="8tRsAm4OLRTYSmNUncQA-116" value="" style="rounded=0;orthogonalLoop=1;jettySize=auto;html=1;exitX=0;exitY=1;exitDx=0;exitDy=0;entryX=1;entryY=0;entryDx=0;entryDy=0;movable=1;resizable=1;rotatable=1;deletable=1;editable=1;locked=0;connectable=1;" parent="1" source="I2Yv86F7FBQ0yj-bZWFU-27" target="8tRsAm4OLRTYSmNUncQA-114" edge="1">
          <mxGeometry relative="1" as="geometry" />
        </mxCell>
        <mxCell id="8tRsAm4OLRTYSmNUncQA-65" value="" style="ellipse;whiteSpace=wrap;html=1;aspect=fixed;movable=1;resizable=1;rotatable=1;deletable=1;editable=1;locked=0;connectable=1;" parent="1" vertex="1">
          <mxGeometry x="495" y="285" width="50" height="50" as="geometry" />
        </mxCell>
        <mxCell id="8tRsAm4OLRTYSmNUncQA-66" value="&lt;span style=&quot;font-size: 20px;&quot;&gt;$$A$$&lt;/span&gt;" style="ellipse;whiteSpace=wrap;html=1;aspect=fixed;movable=1;resizable=1;rotatable=1;deletable=1;editable=1;locked=0;connectable=1;" parent="1" vertex="1">
          <mxGeometry x="500" y="290" width="40" height="40" as="geometry" />
        </mxCell>
        <mxCell id="8tRsAm4OLRTYSmNUncQA-75" value="" style="curved=1;endArrow=classic;html=1;rounded=0;exitX=0;exitY=0;exitDx=0;exitDy=0;entryX=1;entryY=0;entryDx=0;entryDy=0;movable=1;resizable=1;rotatable=1;deletable=1;editable=1;locked=0;connectable=1;" parent="1" source="8tRsAm4OLRTYSmNUncQA-52" target="8tRsAm4OLRTYSmNUncQA-51" edge="1">
          <mxGeometry width="50" height="50" relative="1" as="geometry">
            <mxPoint x="305" y="790" as="sourcePoint" />
            <mxPoint x="355" y="740" as="targetPoint" />
            <Array as="points">
              <mxPoint x="395" y="550" />
            </Array>
          </mxGeometry>
        </mxCell>
        <mxCell id="8tRsAm4OLRTYSmNUncQA-76" value="$$e$$" style="edgeLabel;html=1;align=center;verticalAlign=middle;resizable=1;points=[];labelBackgroundColor=none;movable=1;rotatable=1;deletable=1;editable=1;locked=0;connectable=1;" parent="8tRsAm4OLRTYSmNUncQA-75" vertex="1" connectable="0">
          <mxGeometry x="-0.0609" y="9" relative="1" as="geometry">
            <mxPoint x="-5" y="-10" as="offset" />
          </mxGeometry>
        </mxCell>
        <mxCell id="8tRsAm4OLRTYSmNUncQA-87" value="" style="rounded=0;orthogonalLoop=1;jettySize=auto;html=1;movable=1;resizable=1;rotatable=1;deletable=1;editable=1;locked=0;connectable=1;" parent="1" source="8tRsAm4OLRTYSmNUncQA-82" target="8tRsAm4OLRTYSmNUncQA-86" edge="1">
          <mxGeometry relative="1" as="geometry" />
        </mxCell>
        <mxCell id="8tRsAm4OLRTYSmNUncQA-88" value="$$e$$" style="edgeLabel;html=1;align=center;verticalAlign=middle;resizable=1;points=[];labelBackgroundColor=none;movable=1;rotatable=1;deletable=1;editable=1;locked=0;connectable=1;" parent="8tRsAm4OLRTYSmNUncQA-87" vertex="1" connectable="0">
          <mxGeometry x="0.0417" y="-2" relative="1" as="geometry">
            <mxPoint x="1" y="-10" as="offset" />
          </mxGeometry>
        </mxCell>
        <mxCell id="8tRsAm4OLRTYSmNUncQA-82" value="&lt;span style=&quot;font-size: 20px;&quot;&gt;$$B$$&lt;/span&gt;" style="ellipse;whiteSpace=wrap;html=1;aspect=fixed;movable=1;resizable=1;rotatable=1;deletable=1;editable=1;locked=0;connectable=1;" parent="1" vertex="1">
          <mxGeometry x="621" y="290" width="40" height="40" as="geometry" />
        </mxCell>
        <mxCell id="8tRsAm4OLRTYSmNUncQA-94" style="rounded=0;orthogonalLoop=1;jettySize=auto;html=1;entryX=1;entryY=0;entryDx=0;entryDy=0;movable=1;resizable=1;rotatable=1;deletable=1;editable=1;locked=0;connectable=1;" parent="1" source="8tRsAm4OLRTYSmNUncQA-86" target="8tRsAm4OLRTYSmNUncQA-93" edge="1">
          <mxGeometry relative="1" as="geometry" />
        </mxCell>
        <mxCell id="8tRsAm4OLRTYSmNUncQA-95" value="$$f$$" style="edgeLabel;html=1;align=center;verticalAlign=middle;resizable=1;points=[];movable=1;rotatable=1;deletable=1;editable=1;locked=0;connectable=1;labelBackgroundColor=none;" parent="8tRsAm4OLRTYSmNUncQA-94" vertex="1" connectable="0">
          <mxGeometry x="-0.0736" y="-1" relative="1" as="geometry">
            <mxPoint x="-2" y="-7" as="offset" />
          </mxGeometry>
        </mxCell>
        <mxCell id="I2Yv86F7FBQ0yj-bZWFU-26" value="$$h$$" style="rounded=0;orthogonalLoop=1;jettySize=auto;html=1;entryX=1;entryY=0.5;entryDx=0;entryDy=0;movable=1;resizable=1;rotatable=1;deletable=1;editable=1;locked=0;connectable=1;labelBackgroundColor=none;" parent="1" source="8tRsAm4OLRTYSmNUncQA-86" target="I2Yv86F7FBQ0yj-bZWFU-27" edge="1">
          <mxGeometry y="-10" relative="1" as="geometry">
            <mxPoint as="offset" />
          </mxGeometry>
        </mxCell>
        <mxCell id="8tRsAm4OLRTYSmNUncQA-86" value="&lt;span style=&quot;font-size: 20px;&quot;&gt;$$C$$&lt;/span&gt;" style="ellipse;whiteSpace=wrap;html=1;aspect=fixed;movable=1;resizable=1;rotatable=1;deletable=1;editable=1;locked=0;connectable=1;" parent="1" vertex="1">
          <mxGeometry x="681" y="350" width="40" height="40" as="geometry" />
        </mxCell>
        <mxCell id="8tRsAm4OLRTYSmNUncQA-97" value="" style="edgeStyle=orthogonalEdgeStyle;rounded=0;orthogonalLoop=1;jettySize=auto;html=1;entryX=1;entryY=0.5;entryDx=0;entryDy=0;movable=1;resizable=1;rotatable=1;deletable=1;editable=1;locked=0;connectable=1;" parent="1" source="8tRsAm4OLRTYSmNUncQA-93" target="8tRsAm4OLRTYSmNUncQA-114" edge="1">
          <mxGeometry relative="1" as="geometry" />
        </mxCell>
        <mxCell id="8tRsAm4OLRTYSmNUncQA-98" value="$$a$$" style="edgeLabel;html=1;align=center;verticalAlign=middle;resizable=1;points=[];labelBackgroundColor=none;movable=1;rotatable=1;deletable=1;editable=1;locked=0;connectable=1;" parent="8tRsAm4OLRTYSmNUncQA-97" vertex="1" connectable="0">
          <mxGeometry y="1" relative="1" as="geometry">
            <mxPoint x="1" y="9" as="offset" />
          </mxGeometry>
        </mxCell>
        <mxCell id="8tRsAm4OLRTYSmNUncQA-93" value="&lt;span style=&quot;font-size: 20px;&quot;&gt;$$D$$&lt;/span&gt;" style="ellipse;whiteSpace=wrap;html=1;aspect=fixed;movable=1;resizable=1;rotatable=1;deletable=1;editable=1;locked=0;connectable=1;" parent="1" vertex="1">
          <mxGeometry x="621" y="410" width="40" height="40" as="geometry" />
        </mxCell>
        <mxCell id="8tRsAm4OLRTYSmNUncQA-107" value="" style="endArrow=classic;html=1;rounded=0;movable=1;resizable=1;rotatable=1;deletable=1;editable=1;locked=0;connectable=1;" parent="1" edge="1">
          <mxGeometry width="50" height="50" relative="1" as="geometry">
            <mxPoint x="115" y="280" as="sourcePoint" />
            <mxPoint x="145" y="280" as="targetPoint" />
          </mxGeometry>
        </mxCell>
        <mxCell id="8tRsAm4OLRTYSmNUncQA-108" value="" style="endArrow=classic;html=1;rounded=0;movable=1;resizable=1;rotatable=1;deletable=1;editable=1;locked=0;connectable=1;" parent="1" edge="1">
          <mxGeometry width="50" height="50" relative="1" as="geometry">
            <mxPoint x="465" y="309.6600000000001" as="sourcePoint" />
            <mxPoint x="495" y="309.6600000000001" as="targetPoint" />
          </mxGeometry>
        </mxCell>
        <mxCell id="8tRsAm4OLRTYSmNUncQA-109" value="" style="endArrow=classic;html=1;rounded=0;movable=1;resizable=1;rotatable=1;deletable=1;editable=1;locked=0;connectable=1;" parent="1" edge="1">
          <mxGeometry width="50" height="50" relative="1" as="geometry">
            <mxPoint x="280" y="599.31" as="sourcePoint" />
            <mxPoint x="310" y="599.31" as="targetPoint" />
          </mxGeometry>
        </mxCell>
        <mxCell id="8tRsAm4OLRTYSmNUncQA-112" value="" style="curved=1;endArrow=classic;html=1;rounded=0;exitX=0.331;exitY=0.031;exitDx=0;exitDy=0;exitPerimeter=0;entryX=0.06;entryY=0.256;entryDx=0;entryDy=0;entryPerimeter=0;movable=1;resizable=1;rotatable=1;deletable=1;editable=1;locked=0;connectable=1;" parent="1" source="8tRsAm4OLRTYSmNUncQA-65" target="8tRsAm4OLRTYSmNUncQA-65" edge="1">
          <mxGeometry width="50" height="50" relative="1" as="geometry">
            <mxPoint x="450" y="230" as="sourcePoint" />
            <mxPoint x="500" y="180" as="targetPoint" />
            <Array as="points">
              <mxPoint x="490" y="240" />
              <mxPoint x="460" y="260" />
            </Array>
          </mxGeometry>
        </mxCell>
        <mxCell id="8tRsAm4OLRTYSmNUncQA-113" value="$$a$$" style="edgeLabel;html=1;align=center;verticalAlign=middle;resizable=1;points=[];labelBackgroundColor=none;movable=1;rotatable=1;deletable=1;editable=1;locked=0;connectable=1;" parent="1" vertex="1" connectable="0">
          <mxGeometry x="472.1215501624149" y="241.51286893510542" as="geometry" />
        </mxCell>
        <mxCell id="I2Yv86F7FBQ0yj-bZWFU-28" value="$$g$$" style="edgeStyle=orthogonalEdgeStyle;rounded=0;orthogonalLoop=1;jettySize=auto;html=1;entryX=0.5;entryY=1;entryDx=0;entryDy=0;movable=1;resizable=1;rotatable=1;deletable=1;editable=1;locked=0;connectable=1;" parent="1" edge="1">
          <mxGeometry x="0.0667" y="9" relative="1" as="geometry">
            <mxPoint x="520" y="409.9999999999998" as="sourcePoint" />
            <mxPoint x="520" y="334.9999999999998" as="targetPoint" />
            <mxPoint as="offset" />
          </mxGeometry>
        </mxCell>
        <mxCell id="8tRsAm4OLRTYSmNUncQA-114" value="&lt;span style=&quot;font-size: 20px;&quot;&gt;$$F$$&lt;/span&gt;" style="ellipse;whiteSpace=wrap;html=1;aspect=fixed;movable=1;resizable=1;rotatable=1;deletable=1;editable=1;locked=0;connectable=1;" parent="1" vertex="1">
          <mxGeometry x="500" y="410" width="40" height="40" as="geometry" />
        </mxCell>
        <mxCell id="8tRsAm4OLRTYSmNUncQA-117" value="$$b$$" style="edgeLabel;html=1;align=center;verticalAlign=middle;resizable=1;points=[];labelBackgroundColor=none;movable=1;rotatable=1;deletable=1;editable=1;locked=0;connectable=1;" parent="1" vertex="1" connectable="0">
          <mxGeometry x="548.1248251827136" y="390.99519021677963" as="geometry" />
        </mxCell>
        <mxCell id="I2Yv86F7FBQ0yj-bZWFU-11" value="$$d$$" style="curved=1;endArrow=classic;html=1;rounded=0;exitX=0.298;exitY=0.98;exitDx=0;exitDy=0;exitPerimeter=0;entryX=0.074;entryY=0.789;entryDx=0;entryDy=0;entryPerimeter=0;movable=1;resizable=1;rotatable=1;deletable=1;editable=1;locked=0;connectable=1;labelBackgroundColor=none;" parent="1" edge="1">
          <mxGeometry x="-0.0023" y="8" width="50" height="50" relative="1" as="geometry">
            <mxPoint x="159.89999999999998" y="303" as="sourcePoint" />
            <mxPoint x="148.69999999999993" y="293.44999999999993" as="targetPoint" />
            <Array as="points">
              <mxPoint x="130" y="329" />
              <mxPoint x="120" y="319" />
            </Array>
            <mxPoint as="offset" />
          </mxGeometry>
        </mxCell>
        <mxCell id="I2Yv86F7FBQ0yj-bZWFU-13" value="" style="curved=1;endArrow=classic;html=1;rounded=0;exitX=0;exitY=0;exitDx=0;exitDy=0;entryX=1;entryY=0;entryDx=0;entryDy=0;movable=1;resizable=1;rotatable=1;deletable=1;editable=1;locked=0;connectable=1;" parent="1" source="8tRsAm4OLRTYSmNUncQA-3" target="8tRsAm4OLRTYSmNUncQA-2" edge="1">
          <mxGeometry width="50" height="50" relative="1" as="geometry">
            <mxPoint x="170" y="500" as="sourcePoint" />
            <mxPoint x="220" y="450" as="targetPoint" />
            <Array as="points">
              <mxPoint x="240" y="220" />
            </Array>
          </mxGeometry>
        </mxCell>
        <mxCell id="I2Yv86F7FBQ0yj-bZWFU-14" value="$$e$$" style="edgeLabel;html=1;align=center;verticalAlign=middle;resizable=1;points=[];movable=1;rotatable=1;deletable=1;editable=1;locked=0;connectable=1;labelBackgroundColor=none;" parent="I2Yv86F7FBQ0yj-bZWFU-13" vertex="1" connectable="0">
          <mxGeometry x="0.2211" y="14" relative="1" as="geometry">
            <mxPoint x="-3" y="-11" as="offset" />
          </mxGeometry>
        </mxCell>
        <mxCell id="I2Yv86F7FBQ0yj-bZWFU-15" value="&lt;span style=&quot;font-size: 20px;&quot;&gt;$$C$$&lt;/span&gt;" style="ellipse;whiteSpace=wrap;html=1;aspect=fixed;movable=1;resizable=1;rotatable=1;deletable=1;editable=1;locked=0;connectable=1;" parent="1" vertex="1">
          <mxGeometry x="445" y="630" width="40" height="40" as="geometry" />
        </mxCell>
        <mxCell id="I2Yv86F7FBQ0yj-bZWFU-19" value="" style="curved=1;endArrow=classic;html=1;rounded=0;exitX=0;exitY=1;exitDx=0;exitDy=0;entryX=1;entryY=1;entryDx=0;entryDy=0;movable=1;resizable=1;rotatable=1;deletable=1;editable=1;locked=0;connectable=1;" parent="1" source="I2Yv86F7FBQ0yj-bZWFU-15" target="8tRsAm4OLRTYSmNUncQA-51" edge="1">
          <mxGeometry width="50" height="50" relative="1" as="geometry">
            <mxPoint x="461" y="566" as="sourcePoint" />
            <mxPoint x="363" y="592" as="targetPoint" />
            <Array as="points">
              <mxPoint x="395" y="670" />
            </Array>
          </mxGeometry>
        </mxCell>
        <mxCell id="I2Yv86F7FBQ0yj-bZWFU-20" value="$$d$$" style="edgeLabel;html=1;align=center;verticalAlign=middle;resizable=1;points=[];labelBackgroundColor=none;movable=1;rotatable=1;deletable=1;editable=1;locked=0;connectable=1;" parent="I2Yv86F7FBQ0yj-bZWFU-19" vertex="1" connectable="0">
          <mxGeometry x="-0.0609" y="9" relative="1" as="geometry">
            <mxPoint x="7" y="-8" as="offset" />
          </mxGeometry>
        </mxCell>
        <mxCell id="I2Yv86F7FBQ0yj-bZWFU-25" value="$$c$$" style="curved=1;endArrow=classic;html=1;rounded=0;exitX=0.754;exitY=0.058;exitDx=0;exitDy=0;exitPerimeter=0;entryX=0.5;entryY=0;entryDx=0;entryDy=0;movable=1;resizable=1;rotatable=1;deletable=1;editable=1;locked=0;connectable=1;labelBackgroundColor=none;" parent="1" source="8tRsAm4OLRTYSmNUncQA-65" target="8tRsAm4OLRTYSmNUncQA-65" edge="1">
          <mxGeometry x="0.0567" y="-10" width="50" height="50" relative="1" as="geometry">
            <mxPoint x="522" y="297" as="sourcePoint" />
            <mxPoint x="508" y="308" as="targetPoint" />
            <Array as="points">
              <mxPoint x="560" y="230" />
              <mxPoint x="520" y="230" />
            </Array>
            <mxPoint as="offset" />
          </mxGeometry>
        </mxCell>
        <mxCell id="I2Yv86F7FBQ0yj-bZWFU-27" value="&lt;span style=&quot;font-size: 20px;&quot;&gt;$$E$$&lt;/span&gt;" style="ellipse;whiteSpace=wrap;html=1;aspect=fixed;movable=1;resizable=1;rotatable=1;deletable=1;editable=1;locked=0;connectable=1;" parent="1" vertex="1">
          <mxGeometry x="561" y="350" width="40" height="40" as="geometry" />
        </mxCell>
        <mxCell id="YL0shTt_p6Z8N3DTnXfv-1" value="Sorting Plant" style="text;html=1;align=center;verticalAlign=middle;whiteSpace=wrap;rounded=0;fontSize=19;fontStyle=1" vertex="1" parent="1">
          <mxGeometry x="137" y="169" width="170" height="30" as="geometry" />
        </mxCell>
        <mxCell id="YL0shTt_p6Z8N3DTnXfv-2" value="&lt;span style=&quot;color: rgba(0, 0, 0, 0); font-family: monospace; font-size: 0px; text-align: start; background-color: rgb(251, 251, 251);&quot;&gt;%3CmxGraphModel%3E%3Croot%3E%3CmxCell%20id%3D%220%22%2F%3E%3CmxCell%20id%3D%221%22%20parent%3D%220%22%2F%3E%3CmxCell%20id%3D%222%22%20value%3D%22%22%20style%3D%22curved%3D1%3BendArrow%3Dclassic%3Bhtml%3D1%3Brounded%3D0%3BexitX%3D0.969%3BexitY%3D0.337%3BexitDx%3D0%3BexitDy%3D0%3BexitPerimeter%3D0%3BentryX%3D0.029%3BentryY%3D0.296%3BentryDx%3D0%3BentryDy%3D0%3BentryPerimeter%3D0%3B%22%20edge%3D%221%22%20parent%3D%221%22%3E%3CmxGeometry%20width%3D%2250%22%20height%3D%2250%22%20relative%3D%221%22%20as%3D%22geometry%22%3E%3CmxPoint%20x%3D%22193%22%20y%3D%22272%22%20as%3D%22sourcePoint%22%2F%3E%3CmxPoint%20x%3D%22271%22%20y%3D%22272%22%20as%3D%22targetPoint%22%2F%3E%3CArray%20as%3D%22points%22%3E%3CmxPoint%20x%3D%22230%22%20y%3D%22260%22%2F%3E%3C%2FArray%3E%3C%2FmxGeometry%3E%3C%2FmxCell%3E%3C%2Froot%3E%3C%2FmxGraphModel%&lt;/span&gt;&lt;span style=&quot;color: rgba(0, 0, 0, 0); font-family: monospace; font-size: 0px; text-align: start; background-color: rgb(251, 251, 251);&quot;&gt;%3CmxGraphModel%3E%3Croot%3E%3CmxCell%20id%3D%220%22%2F%3E%3CmxCell%20id%3D%221%22%20parent%3D%220%22%2F%3E%3CmxCell%20id%3D%222%22%20value%3D%22%22%20style%3D%22curved%3D1%3BendArrow%3Dclassic%3Bhtml%3D1%3Brounded%3D0%3BexitX%3D0.969%3BexitY%3D0.337%3BexitDx%3D0%3BexitDy%3D0%3BexitPerimeter%3D0%3BentryX%3D0.029%3BentryY%3D0.296%3BentryDx%3D0%3BentryDy%3D0%3BentryPerimeter%3D0%3B%22%20edge%3D%221%22%20parent%3D%221%22%3E%3CmxGeometry%20width%3D%2250%22%20height%3D%2250%22%20relative%3D%221%22%20as%3D%22geometry%22%3E%3CmxPoint%20x%3D%22193%22%20y%3D%22272%22%20as%3D%22sourcePoint%22%2F%3E%3CmxPoint%20x%3D%22271%22%20y%3D%22272%22%20as%3D%22targetPoint%22%2F%3E%3CArray%20as%3D%22points%22%3E%3CmxPoint%20x%3D%22230%22%20y%3D%22260%22%2F%3E%3C%2FArray%3E%3C%2FmxGeometry%3E%3C%2FmxCell%3E%3C%2Froot%3E%3C%2FmxGraphModel%3E&lt;/span&gt;" style="curved=1;endArrow=classic;html=1;rounded=0;exitX=0.969;exitY=0.337;exitDx=0;exitDy=0;exitPerimeter=0;entryX=0.029;entryY=0.296;entryDx=0;entryDy=0;entryPerimeter=0;" edge="1" parent="1" source="8tRsAm4OLRTYSmNUncQA-2" target="8tRsAm4OLRTYSmNUncQA-3">
          <mxGeometry width="50" height="50" relative="1" as="geometry">
            <mxPoint x="240" y="170" as="sourcePoint" />
            <mxPoint x="290" y="120" as="targetPoint" />
            <Array as="points">
              <mxPoint x="230" y="260" />
            </Array>
          </mxGeometry>
        </mxCell>
        <mxCell id="YL0shTt_p6Z8N3DTnXfv-4" value="$$a$$" style="edgeLabel;html=1;align=center;verticalAlign=middle;resizable=0;points=[];labelBackgroundColor=none;" vertex="1" connectable="0" parent="YL0shTt_p6Z8N3DTnXfv-2">
          <mxGeometry x="0.1942" y="-4" relative="1" as="geometry">
            <mxPoint x="-7" y="-9" as="offset" />
          </mxGeometry>
        </mxCell>
        <mxCell id="YL0shTt_p6Z8N3DTnXfv-3" value="" style="curved=1;endArrow=classic;html=1;rounded=0;exitX=0.969;exitY=0.337;exitDx=0;exitDy=0;exitPerimeter=0;entryX=0.029;entryY=0.296;entryDx=0;entryDy=0;entryPerimeter=0;" edge="1" parent="1">
          <mxGeometry width="50" height="50" relative="1" as="geometry">
            <mxPoint x="194" y="287" as="sourcePoint" />
            <mxPoint x="272" y="287" as="targetPoint" />
            <Array as="points">
              <mxPoint x="231" y="300" />
            </Array>
          </mxGeometry>
        </mxCell>
        <mxCell id="YL0shTt_p6Z8N3DTnXfv-5" value="$$b$$" style="edgeLabel;html=1;align=center;verticalAlign=middle;resizable=0;points=[];labelBackgroundColor=none;" vertex="1" connectable="0" parent="YL0shTt_p6Z8N3DTnXfv-3">
          <mxGeometry x="0.2387" y="2" relative="1" as="geometry">
            <mxPoint x="-9" y="8" as="offset" />
          </mxGeometry>
        </mxCell>
        <mxCell id="YL0shTt_p6Z8N3DTnXfv-7" value="Package Station" style="text;html=1;align=center;verticalAlign=middle;whiteSpace=wrap;rounded=0;fontSize=19;fontStyle=1" vertex="1" parent="1">
          <mxGeometry x="496" y="169" width="170" height="30" as="geometry" />
        </mxCell>
        <mxCell id="YL0shTt_p6Z8N3DTnXfv-8" value="Drone" style="text;html=1;align=center;verticalAlign=middle;whiteSpace=wrap;rounded=0;fontSize=19;fontStyle=1" vertex="1" parent="1">
          <mxGeometry x="320" y="490" width="170" height="30" as="geometry" />
        </mxCell>
      </root>
    </mxGraphModel>
  </diagram>
</mxfile>
